<svg width="24" height="24" viewBox="0 0 24 24" fill="none" xmlns="http://www.w3.org/2000/svg">
<rect width="24" height="24" rx="4" fill="#3490F6"/>
<path d="M16.6049 10.3828H14.4274C14.3876 10.1011 14.3064 9.85085 14.1838 9.6321C14.0611 9.41004 13.9037 9.22112 13.7115 9.06534C13.5192 8.90956 13.2972 8.79025 13.0453 8.70739C12.7967 8.62453 12.5266 8.5831 12.2349 8.5831C11.7079 8.5831 11.2489 8.71402 10.8578 8.97585C10.4667 9.23437 10.1634 9.61222 9.94798 10.1094C9.73254 10.6032 9.62482 11.2031 9.62482 11.9091C9.62482 12.6349 9.73254 13.2448 9.94798 13.7386C10.1667 14.2325 10.4717 14.6054 10.8627 14.8572C11.2538 15.1091 11.7063 15.2351 12.22 15.2351C12.5083 15.2351 12.7752 15.197 13.0204 15.1207C13.269 15.0445 13.4894 14.9335 13.6816 14.7876C13.8739 14.6385 14.033 14.4579 14.1589 14.2457C14.2882 14.0336 14.3777 13.7917 14.4274 13.5199L16.6049 13.5298C16.5486 13.9972 16.4077 14.4479 16.1824 14.8821C15.9603 15.313 15.6603 15.6991 15.2825 16.0405C14.908 16.3786 14.4605 16.647 13.9402 16.8459C13.4231 17.0414 12.8381 17.1392 12.1852 17.1392C11.277 17.1392 10.465 16.9337 9.74911 16.5227C9.03652 16.1117 8.47307 15.5168 8.05877 14.7379C7.64779 13.959 7.44229 13.0161 7.44229 11.9091C7.44229 10.7988 7.6511 9.85417 8.06871 9.07528C8.48633 8.2964 9.05309 7.70312 9.769 7.29545C10.4849 6.88447 11.2903 6.67898 12.1852 6.67898C12.7752 6.67898 13.322 6.76184 13.8258 6.92756C14.3329 7.09328 14.782 7.33523 15.1731 7.65341C15.5642 7.96828 15.8824 8.3544 16.1277 8.81179C16.3762 9.26918 16.5353 9.79285 16.6049 10.3828Z" fill="white"/>
</svg>
