<svg width="18" height="18" viewBox="0 0 18 18" fill="none" xmlns="http://www.w3.org/2000/svg">
<path d="M6.75 1.84351C3.70717 2.7992 1.5 5.64192 1.5 9.00015C1.5 13.1423 4.85786 16.5002 9 16.5002C12.3582 16.5002 15.201 14.293 16.1566 11.2502M12.2 9H14.9C15.4396 9 15.7094 9 15.9452 8.86029C16.1268 8.75263 16.3168 8.51729 16.3838 8.317C16.4707 8.05709 16.4243 7.84191 16.3315 7.41154C15.7132 4.54435 13.4557 2.28682 10.5885 1.66854C10.1581 1.57574 9.94291 1.52934 9.683 1.61621C9.48271 1.68315 9.24737 1.87315 9.13971 2.05483C9 2.29059 9 2.56039 9 3.1V5.8C9 6.9201 9 7.48016 9.21799 7.90798C9.40973 8.28431 9.71569 8.59027 10.092 8.78201C10.5198 9 11.0799 9 12.2 9Z" stroke="#1A2433" stroke-width="1.2" stroke-linecap="round" stroke-linejoin="round"/>
</svg>
