<svg width="20" height="20" viewBox="0 0 20 20" fill="none" xmlns="http://www.w3.org/2000/svg">
<path d="M12.5002 4.16699C12.5002 6.00794 13.9925 7.50032 15.8335 7.50032M3.3335 16.667L3.7868 14.4005C3.92805 13.6942 3.99868 13.3411 4.12784 13.0118C4.24249 12.7195 4.39115 12.4417 4.57075 12.1842C4.7731 11.8941 5.02775 11.6394 5.53706 11.1301L13.3336 3.33364C13.5681 3.09916 13.6853 2.98192 13.7975 2.89748C14.5098 2.36141 15.4908 2.36142 16.203 2.89751C16.3152 2.98195 16.4324 3.09919 16.6669 3.33368V3.33368C16.9014 3.56816 17.0186 3.6854 17.1031 3.7976C17.6391 4.50982 17.6391 5.49082 17.103 6.20303C17.0186 6.31522 16.9014 6.43246 16.6669 6.66694L8.87037 14.4635C8.36107 14.9727 8.10642 15.2274 7.8163 15.4297C7.55878 15.6093 7.28101 15.758 6.98872 15.8726C6.65943 16.0018 6.3063 16.0724 5.60003 16.2137L3.3335 16.667Z" stroke="#1A2433" stroke-width="1.2" stroke-linecap="round" stroke-linejoin="round"/>
</svg>
