<svg width="18" height="18" viewBox="0 0 18 18" fill="none" xmlns="http://www.w3.org/2000/svg">
<path d="M10.5 1.875V2.80002C10.5 3.92013 10.5 4.48018 10.718 4.908C10.9097 5.28433 11.2157 5.59029 11.592 5.78204C12.0198 6.00002 12.5799 6.00002 13.7 6.00002H14.625M15 7.90165V11.7C15 13.3802 15 14.2202 14.673 14.862C14.3854 15.4265 13.9265 15.8854 13.362 16.173C12.7202 16.5 11.8802 16.5 10.2 16.5H7.8C6.11984 16.5 5.27976 16.5 4.63803 16.173C4.07354 15.8854 3.6146 15.4265 3.32698 14.862C3 14.2202 3 13.3802 3 11.7V6.3C3 4.61984 3 3.77976 3.32698 3.13803C3.6146 2.57354 4.07354 2.1146 4.63803 1.82698C5.27976 1.5 6.11984 1.5 7.8 1.5H8.59835C9.16907 1.5 9.45442 1.5 9.72825 1.53027C10.6709 1.63446 11.5644 2.00458 12.3046 2.59744C12.5197 2.76966 12.7214 2.97144 13.125 3.375V3.375C13.5286 3.77856 13.7303 3.98034 13.9026 4.19536C14.4954 4.93557 14.8655 5.82913 14.9697 6.77175C15 7.04558 15 7.33093 15 7.90165Z" stroke="#1A2433" stroke-width="1.2" stroke-linecap="round" stroke-linejoin="round"/>
</svg>
