<svg width="18" height="18" viewBox="0 0 18 18" fill="none" xmlns="http://www.w3.org/2000/svg">
<g clip-path="url(#clip0_374_65)">
<path fill-rule="evenodd" clip-rule="evenodd" d="M0.9375 8.0363C0.9375 7.1891 0.9375 6.7655 1.04524 6.3744C1.14069 6.02792 1.29762 5.70141 1.50855 5.41044C1.74664 5.08198 2.07741 4.81737 2.73896 4.28813L6.00146 1.67813C7.07162 0.822002 7.6067 0.39394 8.20011 0.229776C8.72354 0.0849698 9.27646 0.0849698 9.79989 0.229776C10.3933 0.39394 10.9284 0.822002 11.9985 1.67812L15.261 4.28813C15.9226 4.81736 16.2534 5.08198 16.4915 5.41044C16.7024 5.70141 16.8593 6.02792 16.9548 6.3744C17.0625 6.7655 17.0625 7.1891 17.0625 8.03629V12.2621C17.0625 13.9423 17.0625 14.7824 16.7355 15.4241C16.4479 15.9886 15.989 16.4475 15.4245 16.7352C14.7827 17.0621 13.9427 17.0621 12.2625 17.0621H5.7375C4.05734 17.0621 3.21726 17.0621 2.57553 16.7352C2.01104 16.4475 1.5521 15.9886 1.26448 15.4241C0.9375 14.7824 0.9375 13.9423 0.9375 12.2621V8.0363ZM6.5625 11.4375C6.25184 11.4375 6 11.6893 6 12C6 12.3107 6.25184 12.5625 6.5625 12.5625H11.4375C11.7482 12.5625 12 12.3107 12 12C12 11.6893 11.7482 11.4375 11.4375 11.4375H6.5625Z" fill="#0068B9"/>
</g>
<defs>
<clipPath id="clip0_374_65">
<rect width="18" height="18" fill="white"/>
</clipPath>
</defs>
</svg>
