<svg width="146" height="24" viewBox="0 0 146 24" fill="none" xmlns="http://www.w3.org/2000/svg">
<g clip-path="url(#clip0_221_3260)">
<path d="M42.4692 19.272H54.1512V23.7879H37.1123V19.8068L37.5246 19.272L48.6624 4.75377H37.7295V0.24022H54.1512V4.0447L42.4692 19.272Z" fill="#353536"/>
<path d="M75.7346 0.24022L68.969 11.239L66.6062 7.12126L70.6557 0.24022H75.7346Z" fill="#353536"/>
<path d="M67.4352 13.2555V23.7879H63.0323V14.424L54.9452 0.24022H60.0147L67.4352 13.2555Z" fill="#353536"/>
<path d="M93.447 15.3146H97.9181V15.3475C97.8639 16.6691 97.5224 17.9742 96.851 19.1143C95.1643 21.9906 91.8003 23.9977 87.4423 23.9906L86.8251 23.9977C83.1007 24.0495 79.4329 22.3817 77.2915 19.331C76.4411 18.1179 75.7415 16.523 75.4164 15.0766C74.6366 11.6114 75.2562 7.66556 77.2774 4.70678C79.0018 2.18146 81.7627 0.563082 84.778 0.157899C88.4929 -0.341512 92.8321 0.588995 95.4541 3.40407C95.8027 3.77863 96.2314 4.41938 96.606 5.03187C97.3033 6.16497 97.7791 7.42527 97.9558 8.74212C97.97 8.85048 97.9817 8.95177 97.9888 9.04365H93.381C93.3575 8.93528 93.3316 8.82928 93.3033 8.72327C92.672 6.37462 90.7049 4.58899 88.3115 4.16025C87.8828 4.08252 87.4399 4.04247 86.99 4.04247C85.6025 4.04247 84.3021 4.42174 83.1902 5.08369C80.997 6.38405 79.5271 8.77274 79.5271 11.5054C79.5271 12.5466 79.5106 13.5619 79.7862 14.5772C80.0972 15.7244 80.679 16.8034 81.4823 17.682C82.8793 19.2085 84.9193 20.1061 86.99 20.1061C88.1349 20.1061 89.2185 19.8493 90.1867 19.3876C91.7132 18.4736 92.884 17.0295 93.447 15.3098V15.3146Z" fill="#353536"/>
<path d="M133.949 0V4.35571C138.479 4.38634 141.638 7.40165 141.638 11.7079V12.4028C141.638 17.0012 138.665 19.8563 133.878 19.8563C129.537 19.8563 126.262 16.6525 126.262 12.4028V12.0565H121.906V12.4028C121.906 19.0247 126.491 23.9552 133.878 23.9552C141.266 23.9552 145.994 19.4653 145.994 12.4028V11.7079C145.994 5.05536 140.82 0.0353357 133.951 0H133.949Z" fill="#353536"/>
<path d="M101.381 23.7879H105.737V15.4534H110.995L115.419 23.7879H120.42L115.077 14.7703C117.416 13.4393 119.195 10.8056 119.181 7.92693C119.157 3.24378 116.173 0.332117 111.449 0.332117H101.292V4.23789H111.449C113.482 4.23789 115.138 5.8916 115.138 7.92693C115.138 9.96227 113.485 11.616 111.449 11.616H101.381V23.7879Z" fill="#353536"/>
<path d="M22.2245 22.9851C28.2833 22.9851 33.195 18.0734 33.195 12.0145C33.195 5.95563 28.2833 1.04395 22.2245 1.04395C16.1656 1.04395 11.2539 5.95563 11.2539 12.0145C11.2539 18.0734 16.1656 22.9851 22.2245 22.9851Z" fill="#E8E8E9"/>
<path d="M10.9706 22.9851C17.0294 22.9851 21.9411 18.0734 21.9411 12.0145C21.9411 5.95563 17.0294 1.04395 10.9706 1.04395C4.91168 1.04395 0 5.95563 0 12.0145C0 18.0734 4.91168 22.9851 10.9706 22.9851Z" fill="#D2D2D2"/>
<path d="M11.2539 12.0146C11.2539 16.017 13.3976 19.5176 16.599 21.4328C19.8004 19.5152 21.9441 16.017 21.9441 12.0146H11.2539Z" fill="#BBBBBC"/>
</g>
<defs>
<clipPath id="clip0_221_3260">
<rect width="145.993" height="24" fill="white"/>
</clipPath>
</defs>
</svg>
