<svg width="18" height="18" viewBox="0 0 18 18" fill="none" xmlns="http://www.w3.org/2000/svg">
<path d="M7.5 5.25037L4.5 5.25037C2.84315 5.25037 1.5 6.59351 1.5 8.25037V8.25037C1.5 9.90722 2.84315 11.2504 4.5 11.2504L7.5 11.2504M7.5 5.25037L7.5 11.2504M7.5 5.25037L10.0844 3.44115C11.6092 2.37374 12.3716 1.84004 13.0045 1.84147C13.6539 1.84293 14.2622 2.15962 14.6358 2.69079C15 3.2085 15 4.13912 15 6.00036V6.00036M7.5 11.2504L10.0848 13.0596C11.6093 14.1267 12.3716 14.6602 13.0045 14.6588C13.654 14.6574 14.2623 14.3406 14.6359 13.8094C15 13.2917 15 12.3613 15 10.5004V10.5004M4.5 11.2504L4.5 14.6254C4.5 15.2467 5.00368 15.7504 5.625 15.7504V15.7504C6.24632 15.7504 6.75 15.2467 6.75 14.6254L6.75 11.2504M15 6.00036V6.00036C16.2426 6.00036 17.25 7.00772 17.25 8.25036V8.25036C17.25 9.493 16.2426 10.5004 15 10.5004V10.5004M15 6.00036L15 10.5004" stroke="#1A2433" stroke-width="1.2" stroke-linecap="round" stroke-linejoin="round"/>
</svg>
