<svg width="16" height="16" viewBox="0 0 16 16" fill="none" xmlns="http://www.w3.org/2000/svg">
<path fill-rule="evenodd" clip-rule="evenodd" d="M1.72949 8.00033C1.72949 4.53704 4.53704 1.72949 8.00033 1.72949C11.4636 1.72949 14.2712 4.53704 14.2712 8.00033C14.2712 11.4636 11.4636 14.2712 8.00033 14.2712C4.53704 14.2712 1.72949 11.4636 1.72949 8.00033ZM10.864 6.78066C11.1569 6.48776 11.1569 6.01289 10.864 5.72C10.5711 5.4271 10.0962 5.4271 9.80333 5.72L7.41699 8.10633L6.78066 7.47C6.48776 7.1771 6.01289 7.1771 5.72 7.47C5.4271 7.76289 5.4271 8.23776 5.72 8.53066L6.88666 9.69732C7.02731 9.83797 7.21808 9.91699 7.41699 9.91699C7.6159 9.91699 7.80667 9.83797 7.94732 9.69732L10.864 6.78066Z" fill="#586374"/>
</svg>
