<svg width="218" height="15" viewBox="0 0 218 15" fill="none" xmlns="http://www.w3.org/2000/svg">
<path d="M2.41406 5.90909C2.41406 5.36553 2.54664 4.87003 2.81179 4.42259C3.07694 3.97514 3.43324 3.61884 3.88068 3.35369C4.32813 3.08854 4.82363 2.95597 5.36719 2.95597C5.83783 2.95597 6.27202 3.05705 6.66974 3.25923C7.07079 3.46141 7.40223 3.73816 7.66406 4.08949C7.9259 4.4375 8.08831 4.83191 8.15128 5.27273H6.94815C6.88187 4.93134 6.69792 4.65294 6.39631 4.4375C6.0947 4.21875 5.75166 4.10938 5.36719 4.10938C5.03575 4.10938 4.73414 4.19058 4.46236 4.35298C4.19058 4.51539 3.97348 4.73248 3.81108 5.00426C3.64867 5.27604 3.56747 5.57765 3.56747 5.90909C3.56747 6.24053 3.64867 6.54214 3.81108 6.81392C3.97348 7.0857 4.19058 7.30279 4.46236 7.4652C4.73414 7.6276 5.03575 7.70881 5.36719 7.70881C5.75166 7.70881 6.07647 7.60109 6.34162 7.38565C6.61009 7.1669 6.77912 6.88684 6.84872 6.54545H8.05185C7.98887 6.98627 7.83475 7.38234 7.58949 7.73366C7.34422 8.08168 7.02936 8.35677 6.64489 8.55895C6.26373 8.76113 5.83783 8.86222 5.36719 8.86222C4.82363 8.86222 4.32813 8.72964 3.88068 8.46449C3.43324 8.19934 3.07694 7.84304 2.81179 7.3956C2.54664 6.94815 2.41406 6.45265 2.41406 5.90909ZM5.31747 11.1591C4.59493 11.1591 3.91548 11.0232 3.27912 10.7514C2.64607 10.4796 2.08759 10.1035 1.60369 9.62287C1.12311 9.13897 0.745265 8.58049 0.47017 7.94744C0.19839 7.31439 0.0641572 6.63494 0.0674716 5.90909C0.070786 5.18324 0.208333 4.50379 0.480114 3.87074C0.755208 3.23769 1.13305 2.68087 1.61364 2.20028C2.09422 1.71638 2.65104 1.33854 3.28409 1.06676C3.91714 0.794981 4.59493 0.659091 5.31747 0.659091C6.04332 0.659091 6.72277 0.794981 7.35582 1.06676C7.99219 1.33854 8.54901 1.71638 9.02628 2.20028C9.50687 2.68087 9.88305 3.23769 10.1548 3.87074C10.4266 4.50379 10.5642 5.18324 10.5675 5.90909C10.5708 6.63494 10.4366 7.31439 10.1648 7.94744C9.89299 8.58049 9.51681 9.13897 9.03622 9.62287C8.55563 10.1035 7.99716 10.4796 7.3608 10.7514C6.72443 11.0232 6.04332 11.1591 5.31747 11.1591ZM5.31747 10.0057C5.88423 10.0057 6.41619 9.89962 6.91335 9.6875C7.41051 9.47538 7.84635 9.18205 8.22088 8.80753C8.59541 8.433 8.88873 7.99882 9.10085 7.50497C9.31297 7.00781 9.41738 6.47751 9.41406 5.91406C9.41075 5.3473 9.30303 4.81534 9.09091 4.31818C8.87879 3.82102 8.58546 3.38518 8.21094 3.01065C7.83641 2.63613 7.40223 2.3428 6.90838 2.13068C6.41454 1.91856 5.88423 1.8125 5.31747 1.8125C4.75402 1.8125 4.22538 1.91856 3.73153 2.13068C3.23769 2.3428 2.8035 2.63778 2.42898 3.01562C2.05445 3.39015 1.75947 3.82599 1.54403 4.32315C1.33191 4.817 1.2242 5.3473 1.22088 5.91406C1.21757 6.47419 1.32197 7.00284 1.53409 7.5C1.74621 7.99384 2.03954 8.42803 2.41406 8.80256C2.7919 9.17708 3.22775 9.47206 3.72159 9.6875C4.21875 9.89962 4.75071 10.0057 5.31747 10.0057ZM16.557 11V10.1051L22.0456 1.91193H16.4973V0.818182H23.5172V1.71307L18.0286 9.90625H23.5769V11H16.557ZM26.2417 13.8636C26.0428 13.8636 25.8655 13.8471 25.7097 13.8139C25.5539 13.7841 25.4462 13.7543 25.3865 13.7244L25.6848 12.6903C25.9699 12.7633 26.2218 12.7898 26.4405 12.7699C26.6593 12.75 26.8532 12.6522 27.0222 12.4766C27.1945 12.3042 27.352 12.0241 27.4945 11.6364L27.7132 11.0398L24.8894 3.36364H26.1621L28.2701 9.44886H28.3496L30.4576 3.36364H31.7303L28.4888 12.1136C28.343 12.508 28.1623 12.8345 27.9469 13.093C27.7315 13.3549 27.4812 13.5488 27.1962 13.6747C26.9145 13.8007 26.5963 13.8636 26.2417 13.8636ZM36.1078 11.1591C35.3919 11.1591 34.7754 10.9901 34.2583 10.652C33.7413 10.3139 33.3436 9.84825 33.0652 9.25497C32.7868 8.66169 32.6475 7.9839 32.6475 7.22159C32.6475 6.44602 32.7901 5.7616 33.0751 5.16832C33.3635 4.57173 33.7645 4.10606 34.2782 3.77131C34.7953 3.43324 35.3985 3.2642 36.0879 3.2642C36.6248 3.2642 37.1087 3.36364 37.5396 3.5625C37.9705 3.76136 38.3234 4.03977 38.5985 4.39773C38.8736 4.75568 39.0443 5.1733 39.1106 5.65057H37.9373C37.8478 5.30256 37.649 4.99432 37.3407 4.72585C37.0358 4.45407 36.6248 4.31818 36.1078 4.31818C35.6504 4.31818 35.2493 4.4375 34.9047 4.67614C34.5633 4.91146 34.2965 5.24455 34.1042 5.67543C33.9153 6.10298 33.8208 6.60511 33.8208 7.18182C33.8208 7.77178 33.9136 8.28551 34.0993 8.72301C34.2882 9.16051 34.5533 9.50024 34.8947 9.74219C35.2394 9.98414 35.6438 10.1051 36.1078 10.1051C36.4127 10.1051 36.6895 10.0521 36.938 9.94602C37.1866 9.83996 37.3971 9.6875 37.5694 9.48864C37.7418 9.28977 37.8644 9.05114 37.9373 8.77273H39.1106C39.0443 9.22348 38.8803 9.6295 38.6184 9.99077C38.3599 10.3487 38.0169 10.6338 37.5893 10.8459C37.1651 11.0547 36.6712 11.1591 36.1078 11.1591ZM40.8258 11V3.36364H41.9593V4.51705H42.0389C42.1781 4.1392 42.43 3.83262 42.7946 3.5973C43.1592 3.36198 43.5701 3.24432 44.0275 3.24432C44.1137 3.24432 44.2214 3.24597 44.3507 3.24929C44.4799 3.2526 44.5777 3.25758 44.644 3.2642V4.45739C44.6042 4.44744 44.5131 4.43253 44.3706 4.41264C44.2314 4.38944 44.0839 4.37784 43.9281 4.37784C43.5569 4.37784 43.2254 4.45573 42.9338 4.61151C42.6454 4.76397 42.4167 4.97609 42.2477 5.24787C42.082 5.51634 41.9991 5.82292 41.9991 6.16761V11H40.8258ZM48.9047 11.1591C48.2153 11.1591 47.6104 10.995 47.09 10.6669C46.573 10.3388 46.1686 9.87973 45.877 9.28977C45.5886 8.69981 45.4444 8.01042 45.4444 7.22159C45.4444 6.42614 45.5886 5.73177 45.877 5.13849C46.1686 4.54522 46.573 4.08452 47.09 3.75639C47.6104 3.42827 48.2153 3.2642 48.9047 3.2642C49.594 3.2642 50.1973 3.42827 50.7143 3.75639C51.2347 4.08452 51.639 4.54522 51.9274 5.13849C52.219 5.73177 52.3649 6.42614 52.3649 7.22159C52.3649 8.01042 52.219 8.69981 51.9274 9.28977C51.639 9.87973 51.2347 10.3388 50.7143 10.6669C50.1973 10.995 49.594 11.1591 48.9047 11.1591ZM48.9047 10.1051C49.4283 10.1051 49.8592 9.97088 50.1973 9.70241C50.5353 9.43395 50.7856 9.08097 50.948 8.64347C51.1104 8.20597 51.1916 7.73201 51.1916 7.22159C51.1916 6.71117 51.1104 6.23556 50.948 5.79474C50.7856 5.35393 50.5353 4.99763 50.1973 4.72585C49.8592 4.45407 49.4283 4.31818 48.9047 4.31818C48.381 4.31818 47.9501 4.45407 47.612 4.72585C47.274 4.99763 47.0237 5.35393 46.8613 5.79474C46.6989 6.23556 46.6177 6.71117 46.6177 7.22159C46.6177 7.73201 46.6989 8.20597 46.8613 8.64347C47.0237 9.08097 47.274 9.43395 47.612 9.70241C47.9501 9.97088 48.381 10.1051 48.9047 10.1051ZM58.0735 11V10.1051L61.4343 6.42614C61.8287 5.99526 62.1535 5.62074 62.4087 5.30256C62.6639 4.98106 62.8529 4.67945 62.9755 4.39773C63.1014 4.11269 63.1644 3.81439 63.1644 3.50284C63.1644 3.14489 63.0782 2.83499 62.9059 2.57315C62.7369 2.31132 62.5049 2.10914 62.2099 1.96662C61.9149 1.8241 61.5835 1.75284 61.2156 1.75284C60.8245 1.75284 60.4831 1.83404 60.1914 1.99645C59.9031 2.15554 59.6793 2.37926 59.5202 2.66761C59.3645 2.95597 59.2866 3.29403 59.2866 3.68182H58.1133C58.1133 3.08523 58.2508 2.56155 58.5259 2.1108C58.801 1.66004 59.1755 1.30871 59.6495 1.05682C60.1268 0.804924 60.6621 0.678977 61.2553 0.678977C61.8519 0.678977 62.3806 0.804924 62.8413 1.05682C63.302 1.30871 63.6632 1.64844 63.9251 2.07599C64.1869 2.50355 64.3178 2.97917 64.3178 3.50284C64.3178 3.87737 64.2499 4.24361 64.114 4.60156C63.9814 4.9562 63.7494 5.35227 63.418 5.78977C63.0898 6.22396 62.6341 6.75426 62.0508 7.38068L59.7638 9.8267V9.90625H64.4968V11H58.0735ZM69.8711 11.1392C69.122 11.1392 68.484 10.9354 67.957 10.5277C67.43 10.1167 67.0273 9.52178 66.7489 8.7429C66.4705 7.9607 66.3313 7.0161 66.3313 5.90909C66.3313 4.80871 66.4705 3.86908 66.7489 3.0902C67.0307 2.308 67.435 1.71141 67.962 1.30043C68.4923 0.886126 69.1287 0.678977 69.8711 0.678977C70.6135 0.678977 71.2482 0.886126 71.7752 1.30043C72.3055 1.71141 72.7099 2.308 72.9883 3.0902C73.27 3.86908 73.4109 4.80871 73.4109 5.90909C73.4109 7.0161 73.2717 7.9607 72.9933 8.7429C72.7148 9.52178 72.3121 10.1167 71.7852 10.5277C71.2582 10.9354 70.6201 11.1392 69.8711 11.1392ZM69.8711 10.0455C70.6135 10.0455 71.1902 9.6875 71.6012 8.97159C72.0122 8.25568 72.2177 7.23485 72.2177 5.90909C72.2177 5.02746 72.1232 4.27675 71.9343 3.65696C71.7487 3.03717 71.4802 2.56487 71.1289 2.24006C70.7809 1.91525 70.3616 1.75284 69.8711 1.75284C69.1353 1.75284 68.5603 2.11577 68.146 2.84162C67.7317 3.56416 67.5245 4.58665 67.5245 5.90909C67.5245 6.79072 67.6173 7.53977 67.8029 8.15625C67.9885 8.77273 68.2553 9.24171 68.6033 9.56321C68.9547 9.88471 69.3772 10.0455 69.8711 10.0455ZM75.3001 11V10.1051L78.6609 6.42614C79.0553 5.99526 79.3801 5.62074 79.6353 5.30256C79.8905 4.98106 80.0794 4.67945 80.2021 4.39773C80.328 4.11269 80.391 3.81439 80.391 3.50284C80.391 3.14489 80.3048 2.83499 80.1325 2.57315C79.9634 2.31132 79.7314 2.10914 79.4364 1.96662C79.1415 1.8241 78.81 1.75284 78.4421 1.75284C78.051 1.75284 77.7096 1.83404 77.418 1.99645C77.1296 2.15554 76.9059 2.37926 76.7468 2.66761C76.591 2.95597 76.5131 3.29403 76.5131 3.68182H75.3398C75.3398 3.08523 75.4774 2.56155 75.7525 2.1108C76.0276 1.66004 76.4021 1.30871 76.8761 1.05682C77.3533 0.804924 77.8886 0.678977 78.4819 0.678977C79.0785 0.678977 79.6071 0.804924 80.0678 1.05682C80.5285 1.30871 80.8898 1.64844 81.1516 2.07599C81.4135 2.50355 81.5444 2.97917 81.5444 3.50284C81.5444 3.87737 81.4764 4.24361 81.3406 4.60156C81.208 4.9562 80.976 5.35227 80.6445 5.78977C80.3164 6.22396 79.8607 6.75426 79.2773 7.38068L76.9904 9.8267V9.90625H81.7234V11H75.3001ZM87.217 11.1392C86.5607 11.1392 85.9757 11.0265 85.462 10.8011C84.9516 10.5758 84.5456 10.2625 84.244 9.86151C83.9457 9.45715 83.7833 8.98816 83.7567 8.45455H85.0096C85.0361 8.78267 85.1488 9.06605 85.3477 9.30469C85.5465 9.54001 85.8067 9.7223 86.1282 9.85156C86.4497 9.98082 86.806 10.0455 87.1971 10.0455C87.6346 10.0455 88.0224 9.96922 88.3604 9.81676C88.6985 9.6643 88.9637 9.45218 89.1559 9.1804C89.3481 8.90862 89.4442 8.59375 89.4442 8.2358C89.4442 7.86127 89.3514 7.53149 89.1658 7.24645C88.9802 6.9581 88.7085 6.73272 88.3505 6.57031C87.9925 6.40791 87.555 6.3267 87.038 6.3267H86.2227V5.23295H87.038C87.4424 5.23295 87.797 5.16004 88.1019 5.0142C88.4102 4.86837 88.6504 4.66288 88.8228 4.39773C88.9985 4.13258 89.0863 3.82102 89.0863 3.46307C89.0863 3.11837 89.0101 2.81842 88.8576 2.56321C88.7051 2.308 88.4897 2.10914 88.2113 1.96662C87.9362 1.8241 87.6114 1.75284 87.2369 1.75284C86.8855 1.75284 86.5541 1.81747 86.2425 1.94673C85.9343 2.07268 85.6824 2.25663 85.4869 2.49858C85.2913 2.73722 85.1853 3.02557 85.1687 3.36364H83.9755C83.9954 2.83002 84.1561 2.36269 84.4577 1.96165C84.7594 1.55729 85.1538 1.24242 85.641 1.01705C86.1315 0.791666 86.6701 0.678977 87.2567 0.678977C87.8865 0.678977 88.4267 0.806581 88.8775 1.06179C89.3282 1.31368 89.6746 1.64678 89.9165 2.06108C90.1585 2.47538 90.2795 2.92282 90.2795 3.40341C90.2795 3.9768 90.1287 4.46567 89.8271 4.87003C89.5288 5.27438 89.1228 5.55445 88.609 5.71023V5.78977C89.252 5.89583 89.7541 6.16927 90.1154 6.61009C90.4767 7.04759 90.6573 7.58949 90.6573 8.2358C90.6573 8.7893 90.5065 9.28646 90.2049 9.72727C89.9066 10.1648 89.4989 10.5095 88.9819 10.7614C88.4648 11.0133 87.8765 11.1392 87.217 11.1392ZM93.2512 11.0795C93.006 11.0795 92.7955 10.9917 92.6199 10.8161C92.4442 10.6404 92.3564 10.4299 92.3564 10.1847C92.3564 9.93939 92.4442 9.72893 92.6199 9.55327C92.7955 9.3776 93.006 9.28977 93.2512 9.28977C93.4965 9.28977 93.707 9.3776 93.8826 9.55327C94.0583 9.72893 94.1461 9.93939 94.1461 10.1847C94.1461 10.3471 94.1047 10.4962 94.0218 10.6321C93.9423 10.768 93.8346 10.8774 93.6987 10.9602C93.5661 11.0398 93.417 11.0795 93.2512 11.0795ZM100.766 11H99.4732L103.212 0.818182H104.485L108.223 11H106.931L103.888 2.42898H103.808L100.766 11ZM101.243 7.02273H106.453V8.11648H101.243V7.02273ZM110.823 0.818182V11H109.65V0.818182H110.823ZM114.146 0.818182V11H112.972V0.818182H114.146ZM120.232 11V3.36364H121.366V4.51705H121.445C121.584 4.1392 121.836 3.83262 122.201 3.5973C122.565 3.36198 122.976 3.24432 123.434 3.24432C123.52 3.24432 123.628 3.24597 123.757 3.24929C123.886 3.2526 123.984 3.25758 124.05 3.2642V4.45739C124.01 4.44744 123.919 4.43253 123.777 4.41264C123.638 4.38944 123.49 4.37784 123.334 4.37784C122.963 4.37784 122.632 4.45573 122.34 4.61151C122.052 4.76397 121.823 4.97609 121.654 5.24787C121.488 5.51634 121.405 5.82292 121.405 6.16761V11H120.232ZM125.441 11V3.36364H126.614V11H125.441ZM126.038 2.09091C125.809 2.09091 125.612 2.01302 125.446 1.85724C125.284 1.70147 125.202 1.5142 125.202 1.29545C125.202 1.0767 125.284 0.889441 125.446 0.733664C125.612 0.577888 125.809 0.5 126.038 0.5C126.266 0.5 126.462 0.577888 126.624 0.733664C126.79 0.889441 126.873 1.0767 126.873 1.29545C126.873 1.5142 126.79 1.70147 126.624 1.85724C126.462 2.01302 126.266 2.09091 126.038 2.09091ZM131.846 14.0227C131.279 14.0227 130.792 13.9498 130.384 13.804C129.976 13.6615 129.637 13.4725 129.365 13.2372C129.096 13.0052 128.883 12.7566 128.724 12.4915L129.658 11.8352C129.764 11.9744 129.898 12.1335 130.061 12.3125C130.223 12.4948 130.445 12.6522 130.727 12.7848C131.012 12.9207 131.385 12.9886 131.846 12.9886C132.462 12.9886 132.971 12.8395 133.372 12.5412C133.773 12.2429 133.974 11.7756 133.974 11.1392V9.58807H133.874C133.788 9.72727 133.665 9.89962 133.506 10.1051C133.35 10.3073 133.125 10.4879 132.83 10.647C132.538 10.8028 132.144 10.8807 131.647 10.8807C131.03 10.8807 130.477 10.7348 129.986 10.4432C129.499 10.1515 129.113 9.72727 128.828 9.17045C128.546 8.61364 128.405 7.9375 128.405 7.14205C128.405 6.35985 128.543 5.67874 128.818 5.09872C129.093 4.51539 129.476 4.06463 129.966 3.74645C130.457 3.42495 131.024 3.2642 131.667 3.2642C132.164 3.2642 132.558 3.34706 132.85 3.51278C133.145 3.67519 133.37 3.8608 133.526 4.0696C133.685 4.27509 133.808 4.44413 133.894 4.5767H134.013V3.36364H135.147V11.2188C135.147 11.875 134.998 12.4086 134.699 12.8196C134.404 13.2339 134.007 13.5372 133.506 13.7294C133.009 13.925 132.456 14.0227 131.846 14.0227ZM131.806 9.8267C132.277 9.8267 132.674 9.71899 132.999 9.50355C133.324 9.28812 133.571 8.97822 133.74 8.57386C133.909 8.16951 133.993 7.68561 133.993 7.12216C133.993 6.57197 133.911 6.08641 133.745 5.66548C133.579 5.24455 133.334 4.91477 133.009 4.67614C132.684 4.4375 132.283 4.31818 131.806 4.31818C131.309 4.31818 130.894 4.44413 130.563 4.69602C130.235 4.94792 129.988 5.28598 129.822 5.71023C129.66 6.13447 129.579 6.60511 129.579 7.12216C129.579 7.65246 129.662 8.12145 129.827 8.52912C129.996 8.93348 130.245 9.25166 130.573 9.48366C130.904 9.71236 131.315 9.8267 131.806 9.8267ZM138.468 6.40625V11H137.295V0.818182H138.468V4.55682H138.567C138.746 4.16241 139.015 3.84919 139.373 3.61719C139.734 3.38187 140.215 3.2642 140.814 3.2642C141.335 3.2642 141.791 3.36861 142.182 3.57741C142.573 3.78291 142.876 4.09943 143.091 4.52699C143.31 4.95123 143.42 5.49148 143.42 6.14773V11H142.246V6.22727C142.246 5.62074 142.089 5.15175 141.774 4.82031C141.462 4.48556 141.03 4.31818 140.476 4.31818C140.092 4.31818 139.747 4.39938 139.442 4.56179C139.141 4.72419 138.902 4.96117 138.726 5.27273C138.554 5.58428 138.468 5.96212 138.468 6.40625ZM148.887 3.36364V4.35795H144.93V3.36364H148.887ZM146.083 1.53409H147.256V8.8125C147.256 9.14394 147.304 9.39252 147.401 9.55824C147.5 9.72064 147.626 9.83002 147.778 9.88636C147.934 9.93939 148.098 9.96591 148.271 9.96591C148.4 9.96591 148.506 9.95928 148.589 9.94602C148.672 9.92945 148.738 9.91619 148.788 9.90625L149.026 10.9602C148.947 10.9901 148.836 11.0199 148.693 11.0497C148.551 11.0829 148.37 11.0994 148.151 11.0994C147.82 11.0994 147.495 11.0282 147.177 10.8857C146.862 10.7431 146.6 10.526 146.391 10.2344C146.186 9.94271 146.083 9.57481 146.083 9.13068V1.53409ZM155.924 5.07386L154.87 5.37216C154.804 5.1965 154.706 5.0258 154.577 4.86009C154.451 4.69105 154.279 4.55185 154.06 4.44247C153.841 4.3331 153.561 4.27841 153.22 4.27841C152.752 4.27841 152.363 4.38613 152.051 4.60156C151.743 4.81368 151.589 5.08381 151.589 5.41193C151.589 5.7036 151.695 5.93395 151.907 6.10298C152.119 6.27202 152.451 6.41288 152.902 6.52557L154.035 6.80398C154.718 6.9697 155.227 7.22325 155.561 7.56463C155.896 7.9027 156.064 8.33854 156.064 8.87216C156.064 9.30966 155.938 9.70076 155.686 10.0455C155.437 10.3902 155.089 10.6619 154.642 10.8608C154.194 11.0597 153.674 11.1591 153.081 11.1591C152.302 11.1591 151.657 10.9901 151.147 10.652C150.636 10.3139 150.313 9.82008 150.177 9.17045L151.291 8.89205C151.397 9.30303 151.597 9.61127 151.892 9.81676C152.191 10.0223 152.58 10.125 153.061 10.125C153.608 10.125 154.042 10.009 154.363 9.77699C154.688 9.54167 154.85 9.25994 154.85 8.93182C154.85 8.66667 154.758 8.4446 154.572 8.26562C154.386 8.08333 154.101 7.94744 153.717 7.85795L152.444 7.55966C151.745 7.39394 151.231 7.13707 150.903 6.78906C150.578 6.43774 150.416 5.99858 150.416 5.47159C150.416 5.04072 150.537 4.65956 150.779 4.32812C151.024 3.99669 151.357 3.73651 151.778 3.54758C152.202 3.35866 152.683 3.2642 153.22 3.2642C153.975 3.2642 154.569 3.42992 155 3.76136C155.434 4.0928 155.742 4.5303 155.924 5.07386ZM161.767 11V3.36364H162.901V4.51705H162.98C163.119 4.1392 163.371 3.83262 163.736 3.5973C164.101 3.36198 164.512 3.24432 164.969 3.24432C165.055 3.24432 165.163 3.24597 165.292 3.24929C165.421 3.2526 165.519 3.25758 165.585 3.2642V4.45739C165.546 4.44744 165.454 4.43253 165.312 4.41264C165.173 4.38944 165.025 4.37784 164.869 4.37784C164.498 4.37784 164.167 4.45573 163.875 4.61151C163.587 4.76397 163.358 4.97609 163.189 5.24787C163.023 5.51634 162.941 5.82292 162.941 6.16761V11H161.767ZM169.945 11.1591C169.21 11.1591 168.575 10.9967 168.041 10.6719C167.511 10.3438 167.102 9.88636 166.813 9.29972C166.528 8.70975 166.386 8.02367 166.386 7.24148C166.386 6.45928 166.528 5.76989 166.813 5.1733C167.102 4.57339 167.503 4.10606 168.017 3.77131C168.534 3.43324 169.137 3.2642 169.826 3.2642C170.224 3.2642 170.617 3.33049 171.004 3.46307C171.392 3.59564 171.745 3.81108 172.063 4.10938C172.382 4.40436 172.635 4.79545 172.824 5.28267C173.013 5.76989 173.107 6.36979 173.107 7.08239V7.57955H167.221V6.56534H171.914C171.914 6.13447 171.828 5.75 171.656 5.41193C171.487 5.07386 171.245 4.80705 170.93 4.61151C170.618 4.41596 170.25 4.31818 169.826 4.31818C169.359 4.31818 168.954 4.43419 168.613 4.66619C168.275 4.89489 168.015 5.19318 167.833 5.56108C167.65 5.92898 167.559 6.32339 167.559 6.74432V7.42045C167.559 7.99716 167.659 8.48603 167.857 8.88707C168.06 9.2848 168.34 9.58807 168.698 9.79688C169.056 10.0024 169.472 10.1051 169.945 10.1051C170.254 10.1051 170.532 10.062 170.781 9.97585C171.033 9.88636 171.25 9.75379 171.432 9.57812C171.614 9.39915 171.755 9.17708 171.855 8.91193L172.988 9.23011C172.869 9.61458 172.668 9.95265 172.387 10.2443C172.105 10.5327 171.757 10.758 171.343 10.9205C170.928 11.0795 170.463 11.1591 169.945 11.1591ZM180.301 5.07386L179.247 5.37216C179.181 5.1965 179.083 5.0258 178.954 4.86009C178.828 4.69105 178.656 4.55185 178.437 4.44247C178.218 4.3331 177.938 4.27841 177.597 4.27841C177.129 4.27841 176.74 4.38613 176.428 4.60156C176.12 4.81368 175.966 5.08381 175.966 5.41193C175.966 5.7036 176.072 5.93395 176.284 6.10298C176.496 6.27202 176.828 6.41288 177.279 6.52557L178.412 6.80398C179.095 6.9697 179.604 7.22325 179.938 7.56463C180.273 7.9027 180.441 8.33854 180.441 8.87216C180.441 9.30966 180.315 9.70076 180.063 10.0455C179.814 10.3902 179.466 10.6619 179.019 10.8608C178.571 11.0597 178.051 11.1591 177.458 11.1591C176.679 11.1591 176.034 10.9901 175.524 10.652C175.013 10.3139 174.69 9.82008 174.554 9.17045L175.668 8.89205C175.774 9.30303 175.974 9.61127 176.269 9.81676C176.568 10.0223 176.957 10.125 177.438 10.125C177.985 10.125 178.419 10.009 178.74 9.77699C179.065 9.54167 179.227 9.25994 179.227 8.93182C179.227 8.66667 179.135 8.4446 178.949 8.26562C178.763 8.08333 178.478 7.94744 178.094 7.85795L176.821 7.55966C176.122 7.39394 175.608 7.13707 175.28 6.78906C174.955 6.43774 174.793 5.99858 174.793 5.47159C174.793 5.04072 174.914 4.65956 175.156 4.32812C175.401 3.99669 175.734 3.73651 176.155 3.54758C176.579 3.35866 177.06 3.2642 177.597 3.2642C178.352 3.2642 178.946 3.42992 179.377 3.76136C179.811 4.0928 180.119 4.5303 180.301 5.07386ZM185.408 11.1591C184.673 11.1591 184.038 10.9967 183.504 10.6719C182.974 10.3438 182.565 9.88636 182.276 9.29972C181.991 8.70975 181.849 8.02367 181.849 7.24148C181.849 6.45928 181.991 5.76989 182.276 5.1733C182.565 4.57339 182.966 4.10606 183.479 3.77131C183.996 3.43324 184.6 3.2642 185.289 3.2642C185.687 3.2642 186.08 3.33049 186.467 3.46307C186.855 3.59564 187.208 3.81108 187.526 4.10938C187.844 4.40436 188.098 4.79545 188.287 5.28267C188.476 5.76989 188.57 6.36979 188.57 7.08239V7.57955H182.684V6.56534H187.377C187.377 6.13447 187.291 5.75 187.119 5.41193C186.95 5.07386 186.708 4.80705 186.393 4.61151C186.081 4.41596 185.713 4.31818 185.289 4.31818C184.822 4.31818 184.417 4.43419 184.076 4.66619C183.738 4.89489 183.478 5.19318 183.295 5.56108C183.113 5.92898 183.022 6.32339 183.022 6.74432V7.42045C183.022 7.99716 183.121 8.48603 183.32 8.88707C183.522 9.2848 183.803 9.58807 184.161 9.79688C184.518 10.0024 184.934 10.1051 185.408 10.1051C185.717 10.1051 185.995 10.062 186.244 9.97585C186.496 9.88636 186.713 9.75379 186.895 9.57812C187.077 9.39915 187.218 9.17708 187.317 8.91193L188.451 9.23011C188.332 9.61458 188.131 9.95265 187.849 10.2443C187.568 10.5327 187.22 10.758 186.805 10.9205C186.391 11.0795 185.925 11.1591 185.408 11.1591ZM190.355 11V3.36364H191.489V4.51705H191.568C191.707 4.1392 191.959 3.83262 192.324 3.5973C192.688 3.36198 193.099 3.24432 193.557 3.24432C193.643 3.24432 193.751 3.24597 193.88 3.24929C194.009 3.2526 194.107 3.25758 194.173 3.2642V4.45739C194.134 4.44744 194.042 4.43253 193.9 4.41264C193.761 4.38944 193.613 4.37784 193.457 4.37784C193.086 4.37784 192.755 4.45573 192.463 4.61151C192.175 4.76397 191.946 4.97609 191.777 5.24787C191.611 5.51634 191.528 5.82292 191.528 6.16761V11H190.355ZM202.041 3.36364L199.217 11H198.024L195.2 3.36364H196.473L198.581 9.44886H198.66L200.768 3.36364H202.041ZM206.518 11.1591C205.782 11.1591 205.147 10.9967 204.614 10.6719C204.083 10.3438 203.674 9.88636 203.386 9.29972C203.101 8.70975 202.958 8.02367 202.958 7.24148C202.958 6.45928 203.101 5.76989 203.386 5.1733C203.674 4.57339 204.075 4.10606 204.589 3.77131C205.106 3.43324 205.709 3.2642 206.398 3.2642C206.796 3.2642 207.189 3.33049 207.577 3.46307C207.964 3.59564 208.317 3.81108 208.636 4.10938C208.954 4.40436 209.207 4.79545 209.396 5.28267C209.585 5.76989 209.68 6.36979 209.68 7.08239V7.57955H203.793V6.56534H208.487C208.487 6.13447 208.4 5.75 208.228 5.41193C208.059 5.07386 207.817 4.80705 207.502 4.61151C207.191 4.41596 206.823 4.31818 206.398 4.31818C205.931 4.31818 205.527 4.43419 205.185 4.66619C204.847 4.89489 204.587 5.19318 204.405 5.56108C204.223 5.92898 204.131 6.32339 204.131 6.74432V7.42045C204.131 7.99716 204.231 8.48603 204.43 8.88707C204.632 9.2848 204.912 9.58807 205.27 9.79688C205.628 10.0024 206.044 10.1051 206.518 10.1051C206.826 10.1051 207.104 10.062 207.353 9.97585C207.605 9.88636 207.822 9.75379 208.004 9.57812C208.187 9.39915 208.327 9.17708 208.427 8.91193L209.56 9.23011C209.441 9.61458 209.241 9.95265 208.959 10.2443C208.677 10.5327 208.329 10.758 207.915 10.9205C207.5 11.0795 207.035 11.1591 206.518 11.1591ZM214.348 11.1591C213.712 11.1591 213.15 10.9983 212.663 10.6768C212.175 10.352 211.794 9.89465 211.519 9.30469C211.244 8.71141 211.107 8.01042 211.107 7.2017C211.107 6.39962 211.244 5.7036 211.519 5.11364C211.794 4.52367 212.177 4.06794 212.668 3.74645C213.158 3.42495 213.725 3.2642 214.368 3.2642C214.865 3.2642 215.258 3.34706 215.546 3.51278C215.838 3.67519 216.06 3.8608 216.212 4.0696C216.368 4.27509 216.489 4.44413 216.575 4.5767H216.675V0.818182H217.848V11H216.714V9.8267H216.575C216.489 9.96591 216.366 10.1416 216.207 10.3537C216.048 10.5625 215.821 10.7498 215.526 10.9155C215.231 11.0779 214.839 11.1591 214.348 11.1591ZM214.507 10.1051C214.978 10.1051 215.375 9.98248 215.7 9.73722C216.025 9.48864 216.272 9.1456 216.441 8.7081C216.61 8.26728 216.695 7.75852 216.695 7.18182C216.695 6.61174 216.612 6.11293 216.446 5.68537C216.28 5.2545 216.035 4.91974 215.71 4.68111C215.385 4.43916 214.984 4.31818 214.507 4.31818C214.01 4.31818 213.596 4.44579 213.264 4.70099C212.936 4.95289 212.689 5.29593 212.523 5.73011C212.361 6.16098 212.28 6.64489 212.28 7.18182C212.28 7.72538 212.363 8.21922 212.528 8.66335C212.697 9.10417 212.946 9.45549 213.274 9.71733C213.606 9.97585 214.017 10.1051 214.507 10.1051Z" fill="#586374"/>
</svg>
