<svg width="20" height="20" viewBox="0 0 20 20" fill="none" xmlns="http://www.w3.org/2000/svg">
<path d="M3.33317 4.16699L3.90073 13.8155C3.99428 15.4058 4.04105 16.201 4.38046 16.8044C4.67925 17.3356 5.13274 17.7632 5.68057 18.0303C6.30289 18.3337 7.09941 18.3337 8.69245 18.3337H11.3072C12.9003 18.3337 13.6968 18.3337 14.3191 18.0303C14.8669 17.7632 15.3204 17.3356 15.6192 16.8044C15.9586 16.201 16.0054 15.4058 16.0989 13.8155L16.6665 4.16699M3.33317 4.16699H1.6665M3.33317 4.16699H16.6665M16.6665 4.16699H18.3332M13.3332 4.16699L13.0469 3.30805C12.8502 2.71793 12.7518 2.42287 12.5694 2.20473C12.4083 2.01209 12.2014 1.86298 11.9677 1.77107C11.7031 1.66699 11.3921 1.66699 10.77 1.66699H9.22966C8.60762 1.66699 8.29661 1.66699 8.03197 1.77107C7.79828 1.86298 7.5914 2.01209 7.4303 2.20473C7.24788 2.42287 7.14952 2.71793 6.95282 3.30805L6.6665 4.16699M8.33317 8.33366V14.167M11.6665 8.33366V11.667" stroke="#E61D41" stroke-width="1.2" stroke-linecap="round" stroke-linejoin="round"/>
</svg>
