<svg width="18" height="18" viewBox="0 0 18 18" fill="none" xmlns="http://www.w3.org/2000/svg">
<path d="M10.5 6C10.5 6.82843 9.82843 7.5 9 7.5C8.17157 7.5 7.5 6.82843 7.5 6C7.5 5.17157 8.17157 4.5 9 4.5C9.82843 4.5 10.5 5.17157 10.5 6Z" stroke="#1A2433" stroke-width="1.2" stroke-linecap="round" stroke-linejoin="round"/>
<path d="M1.5 7.9C1.5 5.65979 1.5 4.53968 1.93597 3.68404C2.31947 2.93139 2.93139 2.31947 3.68404 1.93597C4.53968 1.5 5.65979 1.5 7.9 1.5H10.1C12.3402 1.5 13.4603 1.5 14.316 1.93597C15.0686 2.31947 15.6805 2.93139 16.064 3.68404C16.5 4.53968 16.5 5.65979 16.5 7.9V10.1C16.5 12.3402 16.5 13.4603 16.064 14.316C15.6805 15.0686 15.0686 15.6805 14.316 16.064C13.4603 16.5 12.3402 16.5 10.1 16.5H7.9C5.65979 16.5 4.53968 16.5 3.68404 16.064C2.93139 15.6805 2.31947 15.0686 1.93597 14.316C1.5 13.4603 1.5 12.3402 1.5 10.1V7.9Z" stroke="#1A2433" stroke-width="1.2" stroke-linecap="round" stroke-linejoin="round"/>
</svg>
