<svg width="18" height="18" viewBox="0 0 18 18" fill="none" xmlns="http://www.w3.org/2000/svg">
<path d="M9 3.00027C8.47727 3.00027 7.95991 2.80398 7.63977 2.39075L7.49526 2.2042C6.9244 1.46733 5.89698 1.26543 5.08973 1.7315L4.65931 1.98C3.85262 2.44574 3.51399 3.43578 3.86647 4.298L3.95611 4.51728C4.15402 5.00141 4.06626 5.54515 3.80415 5.99776V5.99776C3.54227 6.44996 3.11279 6.80307 2.59502 6.87368L2.36074 6.90563C1.43796 7.03146 0.75 7.8196 0.75 8.75092V9.24963C0.75 10.1809 1.43796 10.9691 2.36074 11.0949L2.59505 11.1269C3.1128 11.1975 3.54227 11.5506 3.80414 12.0028V12.0028C4.06624 12.4554 4.154 12.9991 3.9561 13.4832L3.86645 13.7025C3.51398 14.5647 3.85261 15.5547 4.65929 16.0205L5.08976 16.269C5.89698 16.7351 6.92437 16.5332 7.49522 15.7963L7.63969 15.6098C7.95985 15.1966 8.47724 15.0003 9 15.0003V15.0003V15.0003C9.52282 15.0003 10.0403 15.1966 10.3605 15.6099L10.5048 15.7963C11.0757 16.5331 12.103 16.735 12.9102 16.2689L13.3408 16.0203C14.1474 15.5546 14.486 14.5646 14.1336 13.7024L14.0439 13.4831C13.846 12.999 13.9338 12.4553 14.1959 12.0028V12.0028C14.4577 11.5506 14.8872 11.1975 15.4049 11.1269L15.6393 11.0949C16.562 10.9691 17.25 10.1809 17.25 9.24963V8.75092C17.25 7.8196 16.562 7.03146 15.6393 6.90563L15.4049 6.87368C14.8872 6.80307 14.4577 6.44997 14.1959 5.99778V5.99778C13.9338 5.54519 13.846 5.00147 14.0439 4.51736L14.1335 4.29809C14.486 3.4359 14.1474 2.44588 13.3407 1.98016L12.9102 1.73158C12.103 1.26554 11.0756 1.46743 10.5048 2.20425L10.3604 2.39068C10.0402 2.80396 9.52279 3.00027 9 3.00027V3.00027V3.00027Z" stroke="#1A2433" stroke-width="1.2" stroke-linecap="round" stroke-linejoin="round"/>
<path d="M11.25 9.00024C11.25 10.2429 10.2426 11.2502 9 11.2502C7.75736 11.2502 6.75 10.2429 6.75 9.00024C6.75 7.7576 7.75736 6.75024 9 6.75024C10.2426 6.75024 11.25 7.7576 11.25 9.00024Z" stroke="#1A2433" stroke-width="1.2" stroke-linecap="round" stroke-linejoin="round"/>
</svg>
